{"title":"Totally Bill Hicks (2002) DVDRip XviD peaSoup","uid":8795632,"size":1468594176,"categoryP":"video","categoryS":"tv_shows","magnet":"?xt=urn:btih:c149319f6040c00e5434a038eccb2e9708970a91&amp;dn=Totally+Bill+Hicks+%282002%29+DVDRip+XviD+peaSoup&amp;tr=udp%3A%2F%2Ftracker.openbittorrent.com%3A80&amp;tr=udp%3A%2F%2Fopen.demonii.com%3A1337&amp;tr=udp%3A%2F%2Ftracker.coppersurfer.tk%3A6969&amp;tr=udp%3A%2F%2Fexodus.desync.com%3A6969","seeders":6,"leechers":1,"uploader":"peaSoup","files":-1,"time":1376072263,"description":"Totally Bill Hicks is a video released in 1994, re-released on DVD in 2002, documenting the life and comedy of Bill Hicks. It consists of two parts; Revelations, a recording of his last live performance in the United Kingdom made at the Dominion Theatre, and It's Just A Ride, a documentary about Hicks' life which featured interviews with friends, admirers, and family.                             &lt;a href=&quot; http://imageshack.us/a/img821/2264/unxn.jpg&quot; rel=&quot;nofollow&quot; target=&quot;_NEW&quot;&gt; http://imageshack.us/a/img821/2264/unxn.jpg&lt;/a&gt;                                          Format                                   : AVI\nFormat/Info                              : Audio Video Interleave\nFile size                                : 1.37 GiB\nDuration                                 : 1h 56mn\nOverall bit rate                         : 1 683 Kbps\nWriting application                      : VirtualDubMod 1.5.4.1 (build 2178/release)\nWriting library                          : VirtualDubMod build 2178/release\n\nVideo\nID                                       : 0\nFormat                                   : MPEG-4 Visual\nFormat profile                           : Advanced Simple@L5\nFormat settings, BVOP                    : 1\nFormat settings, QPel                    : No\nFormat settings, GMC                     : No warppoints\nFormat settings, Matrix                  : Custom\nCodec ID                                 : XVID\nCodec ID/Hint                            : XviD\nDuration                                 : 1h 56mn\nBit rate                                 : 1 452 Kbps\nWidth                                    : 640 pixels\nHeight                                   : 480 pixels\nDisplay aspect ratio                     : 4:3\nFrame rate                               : 25.000 fps\nColor space                              : YUV\nChroma subsampling                       : 4:2:0\nBit depth                                : 8 bits\nScan type                                : Progressive\nCompression mode                         : Lossy\nBits/(Pixel*Frame)                       : 0.189\nStream size                              : 1.18 GiB (86%)\nWriting library                          : XviD 1.2.1 (UTC 2008-12-04)\n\nAudio\nID                                       : 1\nFormat                                   : AC-3\nFormat/Info                              : Audio Coding 3\nMode extension                           : CM (complete main)\nFormat settings, Endianness              : Big\nCodec ID                                 : 2000\nDuration                                 : 1h 56mn\nBit rate mode                            : Constant\nBit rate                                 : 224 Kbps\nChannel(s)                               : 2 channels\nChannel positions                        : Front: L R\nSampling rate                            : 48.0 KHz\nBit depth                                : 16 bits\nCompression mode                         : Lossy\nStream size                              : 186 MiB (13%)\nAlignment                                : Split accross interleaves\nInterleave, duration                     : 96 ms (2.40 video frames)\nInterleave, preload duration             : 96 ms\nLanguage                                 : English\n\n","torrent":{"xt":"urn:btih:c149319f6040c00e5434a038eccb2e9708970a91","amp;dn":"Totally+Bill+Hicks+%282002%29+DVDRip+XviD+peaSoup","amp;tr":["udp%3A%2F%2Ftracker.openbittorrent.com%3A80","udp%3A%2F%2Fopen.demonii.com%3A1337","udp%3A%2F%2Ftracker.coppersurfer.tk%3A6969","udp%3A%2F%2Fexodus.desync.com%3A6969"],"infoHash":"c149319f6040c00e5434a038eccb2e9708970a91","infoHashBuffer":{"type":"Buffer","data":[193,73,49,159,96,64,192,14,84,52,160,56,236,203,46,151,8,151,10,145]},"announce":[],"urlList":[]}}